<svg xmlns="http://www.w3.org/2000/svg" xml:space="preserve" id="Layer_1" x="0" y="0" style="enable-background:new 0 0 2024 824" viewBox="0 0 2024 824"><style>.st0{fill:#fff}</style><path d="M10.84 411.76c0-226.72 143.94-400.71 381.33-400.71 200.86 0 327.67 104.18 352.36 275h-217c-11.79-49.42-58.01-90.24-126.75-90.24-107.43 0-162.18 90.24-162.18 215.95 0 125.65 62.26 219.1 170.77 219.1 81.66 0 121.42-44.03 135.34-95.59H400.77V376.29h358.8v416.78H610.22l-17.19-81.62h-2.13c-48.3 69.84-126.73 99.89-220.2 99.89-103.12 0-191.25-35.47-253.52-102.09-70.89-75.17-106.34-178.3-106.34-297.49M790.58 25.03h224.51V600.8h272.17v192.27H790.58V25.03zM1844.36 711.45h-2.14c-48.34 69.84-126.74 99.89-220.23 99.89-103.11 0-191.19-35.47-253.52-102.09-70.88-75.18-106.32-178.31-106.32-297.5 0-226.72 143.95-400.71 381.32-400.71 200.91 0 327.62 104.18 352.36 275h-216.97c-11.8-49.42-58.03-90.24-126.79-90.24-107.41 0-162.21 90.24-162.21 215.95 0 125.65 62.34 219.1 170.79 219.1 81.68 0 121.4-44.03 135.36-95.59h-143.95V376.29h358.79v416.78h-149.29l-17.2-81.62z" class="st0"></path></svg>